<svg id="Layer_1" data-name="Layer 1" xmlns="http://www.w3.org/2000/svg" viewBox="0 0 230.4 100.8"><defs><style>.cls-1{fill:#fff;}</style></defs><polygon class="cls-1" points="32.45 28.86 32.45 44.56 70.65 44.56 70.65 67.85 32.45 67.85 32.45 97.15 1.58 97.15 1.58 5.58 76.02 5.58 76.02 28.86 32.45 28.86"/><path class="cls-1" d="M178.19,26.7A46.26,46.26,0,0,0,159.75,9.63a56.52,56.52,0,0,0-26.56-6.15,56.49,56.49,0,0,0-26.56,6.15A45.89,45.89,0,0,0,81.51,51.36,45.92,45.92,0,0,0,106.63,93.1a56.61,56.61,0,0,0,26.56,6.14,56.64,56.64,0,0,0,26.56-6.14,45.89,45.89,0,0,0,25.11-41.74A46.38,46.38,0,0,0,178.19,26.7ZM151,63.46a20.1,20.1,0,0,1-7.39,8,20.59,20.59,0,0,1-20.8,0,20,20,0,0,1-7.39-8,25.39,25.39,0,0,1-2.75-12.1,25.45,25.45,0,0,1,2.75-12.1,20.16,20.16,0,0,1,7.39-8,20.65,20.65,0,0,1,20.8,0,20.23,20.23,0,0,1,7.39,8,25.45,25.45,0,0,1,2.75,12.1A25.39,25.39,0,0,1,151,63.46Z"/><polygon class="cls-1" points="227.8 22.32 221.22 22.32 221.12 14.28 217 20.68 213.82 20.68 209.64 14.56 209.64 22.32 203.07 22.32 203.07 3.48 209.01 3.48 215.5 13.19 221.81 3.48 227.71 3.48 227.8 22.32"/><polygon class="cls-1" points="201.16 3.48 201.16 8.66 195.26 8.66 195.26 22.32 188 22.32 188 8.66 182.15 8.66 182.15 3.48 201.16 3.48"/></svg>